# xmcd
#
# Track frame offsets:
#	150
#	14281
#	28361
#	40420
#	51251
#	65114
#	75503
#	88829
#	101312
#	114068
#	125879
#	136468
#	147178
#	160019
#	171741
#	185695
#	197633
#	209746
#	218969
#	233147
#
# Disc length: 3236 seconds
#
# Revision: 0
# Processed by: cddbd v1.5.1PL0 Copyright (c) Steve Scherf et al.
# Submitted via: dBpowerAMP V4.0
#
DISCID=300ca214
DTITLE=Ray Charles - Brother Ray's Blues
DYEAR=1900
DGENRE=
TTITLE0=Baby Let Me Hold Your Hand
TTITLE1=Kiss Me Baby
TTITLE2=CC Rider
TTITLE3=I Wonder Who's Kissing her Now
TTITLE4=I'm Going Down to the River
TTITLE5=Sitting on Top of the World
TTITLE6=Alone in the City
TTITLE7=Rockin' Chair Blues
TTITLE8=Can Anyone Ask for More?
TTITLE9=Baby Tell me What I've Done
TTITLE10=Hey Now
TTITLE11=They're Crazy about me
TTITLE12=Honey Honey
TTITLE13=How Long
TTITLE14=Someday
TTITLE15=Can't See You darling
TTITLE16=St Pete Blues
TTITLE17=Going Away Blues
TTITLE18=Blues is my Middle Name
TTITLE19=All to Myself Alone
EXTD=
EXTT0=
EXTT1=
EXTT2=
EXTT3=
EXTT4=
EXTT5=
EXTT6=
EXTT7=
EXTT8=
EXTT9=
EXTT10=
EXTT11=
EXTT12=
EXTT13=
EXTT14=
EXTT15=
EXTT16=
EXTT17=
EXTT18=
EXTT19=
PLAYORDER=
